<mxfile host="65bd71144e">
    <diagram id="1tvypLz8nPfbxYhUWCrx" name="Page-1">
        <mxGraphModel dx="1013" dy="464" grid="1" gridSize="10" guides="1" tooltips="1" connect="1" arrows="1" fold="1" page="1" pageScale="1" pageWidth="850" pageHeight="1100" math="0" shadow="0">
            <root>
                <mxCell id="0"/>
                <mxCell id="1" parent="0"/>
                <mxCell id="2" value="" style="ellipse;whiteSpace=wrap;html=1;aspect=fixed;" parent="1" vertex="1">
                    <mxGeometry x="395.5" width="60" height="60" as="geometry"/>
                </mxCell>
                <mxCell id="3" value="&lt;font style=&quot;font-size: 10px&quot;&gt;Deklarerer variabler for mottakelse av valg av: valuta (nameInput), til/fra NOK (toFromInp) og mengde (amountInput)&lt;/font&gt;" style="rounded=0;whiteSpace=wrap;html=1;spacing=8;" parent="1" vertex="1">
                    <mxGeometry x="340.5" y="90" width="170" height="60" as="geometry"/>
                </mxCell>
                <mxCell id="5" value="" style="rhombus;whiteSpace=wrap;html=1;" parent="1" vertex="1">
                    <mxGeometry x="385.5" y="260" width="80" height="60" as="geometry"/>
                </mxCell>
                <mxCell id="10" value="Leser inn valuta" style="shape=parallelogram;perimeter=parallelogramPerimeter;whiteSpace=wrap;html=1;fixedSize=1;spacing=15;spacingLeft=4;" parent="1" vertex="1">
                    <mxGeometry x="365.5" y="180" width="120" height="60" as="geometry"/>
                </mxCell>
                <mxCell id="17" value="Skriver ut resultat av kalkuleringen" style="shape=parallelogram;perimeter=parallelogramPerimeter;whiteSpace=wrap;html=1;fixedSize=1;spacing=17;" parent="1" vertex="1">
                    <mxGeometry x="365" y="840" width="120" height="60" as="geometry"/>
                </mxCell>
                <mxCell id="19" value="Skriver ut en takk til brukeren" style="shape=parallelogram;perimeter=parallelogramPerimeter;whiteSpace=wrap;html=1;fixedSize=1;spacing=19;" parent="1" vertex="1">
                    <mxGeometry x="365" y="910" width="120" height="60" as="geometry"/>
                </mxCell>
                <mxCell id="21" value="" style="ellipse;whiteSpace=wrap;html=1;aspect=fixed;" parent="1" vertex="1">
                    <mxGeometry x="380" y="1010" width="90" height="90" as="geometry"/>
                </mxCell>
                <mxCell id="22" value="" style="ellipse;whiteSpace=wrap;html=1;aspect=fixed;fillColor=#FFFFFF;" parent="1" vertex="1">
                    <mxGeometry x="395" y="1025" width="60" height="60" as="geometry"/>
                </mxCell>
                <mxCell id="23" value="" style="endArrow=classic;html=1;fontSize=11;exitX=0.5;exitY=1;exitDx=0;exitDy=0;entryX=0.5;entryY=0;entryDx=0;entryDy=0;" parent="1" source="3" target="10" edge="1">
                    <mxGeometry width="50" height="50" relative="1" as="geometry">
                        <mxPoint x="490" y="460" as="sourcePoint"/>
                        <mxPoint x="540" y="410" as="targetPoint"/>
                    </mxGeometry>
                </mxCell>
                <mxCell id="24" value="" style="endArrow=classic;html=1;fontSize=11;exitX=0.5;exitY=1;exitDx=0;exitDy=0;entryX=0.5;entryY=0;entryDx=0;entryDy=0;" parent="1" source="2" target="3" edge="1">
                    <mxGeometry width="50" height="50" relative="1" as="geometry">
                        <mxPoint x="435" y="160.0000000000001" as="sourcePoint"/>
                        <mxPoint x="435" y="189.9999999999999" as="targetPoint"/>
                    </mxGeometry>
                </mxCell>
                <mxCell id="25" value="" style="endArrow=classic;html=1;fontSize=11;exitX=0.5;exitY=1;exitDx=0;exitDy=0;entryX=0.5;entryY=0;entryDx=0;entryDy=0;" parent="1" source="10" target="5" edge="1">
                    <mxGeometry width="50" height="50" relative="1" as="geometry">
                        <mxPoint x="445" y="170.0000000000001" as="sourcePoint"/>
                        <mxPoint x="445" y="199.9999999999999" as="targetPoint"/>
                    </mxGeometry>
                </mxCell>
                <mxCell id="26" value="&lt;font style=&quot;font-size: 13px&quot;&gt;EUR (valutaInp == 2)&lt;/font&gt;" style="endArrow=classic;html=1;fontSize=11;exitX=0.5;exitY=1;exitDx=0;exitDy=0;entryX=0.5;entryY=0;entryDx=0;entryDy=0;spacingLeft=133;spacingTop=3;" parent="1" source="5" target="123" edge="1">
                    <mxGeometry x="-0.6666" width="50" height="50" relative="1" as="geometry">
                        <mxPoint x="455" y="180.0000000000001" as="sourcePoint"/>
                        <mxPoint x="425" y="390" as="targetPoint"/>
                        <mxPoint as="offset"/>
                    </mxGeometry>
                </mxCell>
                <mxCell id="27" value="" style="endArrow=classic;html=1;fontSize=11;exitX=0;exitY=0.5;exitDx=0;exitDy=0;entryX=0.5;entryY=0;entryDx=0;entryDy=0;" parent="1" source="5" target="122" edge="1">
                    <mxGeometry width="50" height="50" relative="1" as="geometry">
                        <mxPoint x="435" y="359.9999999999999" as="sourcePoint"/>
                        <mxPoint x="180" y="300" as="targetPoint"/>
                        <Array as="points">
                            <mxPoint x="230" y="290"/>
                        </Array>
                    </mxGeometry>
                </mxCell>
                <mxCell id="44" value="USD (valutaInp == 1)" style="edgeLabel;html=1;align=center;verticalAlign=middle;resizable=0;points=[];fontSize=13;spacingBottom=0;spacingTop=20;" parent="27" vertex="1" connectable="0">
                    <mxGeometry x="-0.2131" y="2" relative="1" as="geometry">
                        <mxPoint x="9" as="offset"/>
                    </mxGeometry>
                </mxCell>
                <mxCell id="28" value="&lt;font style=&quot;font-size: 13px&quot;&gt;SEK (valutaInp == 3)&lt;/font&gt;" style="endArrow=classic;html=1;fontSize=11;exitX=1;exitY=0.5;exitDx=0;exitDy=0;spacingTop=23;entryX=0.5;entryY=0;entryDx=0;entryDy=0;" parent="1" source="5" target="124" edge="1">
                    <mxGeometry x="-0.3585" width="50" height="50" relative="1" as="geometry">
                        <mxPoint x="445" y="369.9999999999999" as="sourcePoint"/>
                        <mxPoint x="560" y="230" as="targetPoint"/>
                        <Array as="points">
                            <mxPoint x="620" y="290"/>
                        </Array>
                        <mxPoint as="offset"/>
                    </mxGeometry>
                </mxCell>
                <mxCell id="36" value="" style="endArrow=classic;html=1;fontSize=11;exitX=1;exitY=0.5;exitDx=0;exitDy=0;" parent="1" source="17" edge="1">
                    <mxGeometry width="50" height="50" relative="1" as="geometry">
                        <mxPoint x="300" y="570" as="sourcePoint"/>
                        <mxPoint x="425" y="160" as="targetPoint"/>
                        <Array as="points">
                            <mxPoint x="720" y="870"/>
                            <mxPoint x="720" y="160"/>
                        </Array>
                    </mxGeometry>
                </mxCell>
                <mxCell id="38" value="&lt;font style=&quot;font-size: 13px&quot;&gt;Avslutt (valutaInp == 4)&lt;/font&gt;" style="endArrow=classic;html=1;fontSize=11;exitX=0;exitY=0;exitDx=0;exitDy=0;entryX=0;entryY=0.5;entryDx=0;entryDy=0;spacingBottom=20;" parent="1" source="5" target="19" edge="1">
                    <mxGeometry x="-0.8509" width="50" height="50" relative="1" as="geometry">
                        <mxPoint x="480" y="570" as="sourcePoint"/>
                        <mxPoint x="530" y="520" as="targetPoint"/>
                        <Array as="points">
                            <mxPoint x="130" y="275"/>
                            <mxPoint x="130" y="940"/>
                        </Array>
                        <mxPoint as="offset"/>
                    </mxGeometry>
                </mxCell>
                <mxCell id="39" value="" style="endArrow=classic;html=1;fontSize=11;exitX=0.5;exitY=1;exitDx=0;exitDy=0;entryX=0.5;entryY=0;entryDx=0;entryDy=0;" parent="1" source="19" target="21" edge="1">
                    <mxGeometry width="50" height="50" relative="1" as="geometry">
                        <mxPoint x="310" y="580" as="sourcePoint"/>
                        <mxPoint x="310" y="630" as="targetPoint"/>
                    </mxGeometry>
                </mxCell>
                <mxCell id="40" value="&lt;font style=&quot;font-size: 11px&quot;&gt;Konverterer/kalkulerer til/fra NOK&lt;/font&gt;" style="rounded=0;whiteSpace=wrap;html=1;spacing=22;" parent="1" vertex="1">
                    <mxGeometry x="365" y="760" width="120" height="60" as="geometry"/>
                </mxCell>
                <mxCell id="73" value="" style="rhombus;whiteSpace=wrap;html=1;" parent="1" vertex="1">
                    <mxGeometry x="395.5" y="440" width="60" height="40" as="geometry"/>
                </mxCell>
                <mxCell id="74" value="" style="rhombus;whiteSpace=wrap;html=1;" parent="1" vertex="1">
                    <mxGeometry x="200" y="440" width="60" height="40" as="geometry"/>
                </mxCell>
                <mxCell id="75" value="" style="rhombus;whiteSpace=wrap;html=1;" parent="1" vertex="1">
                    <mxGeometry x="590" y="440" width="60" height="40" as="geometry"/>
                </mxCell>
                <mxCell id="76" value="Leser inn&lt;br&gt;til/fra NOK" style="shape=parallelogram;perimeter=parallelogramPerimeter;whiteSpace=wrap;html=1;fixedSize=1;" parent="1" vertex="1">
                    <mxGeometry x="182.5" y="380" width="95" height="40" as="geometry"/>
                </mxCell>
                <mxCell id="77" value="Leser inn&lt;br&gt;til/fra NOK" style="shape=parallelogram;perimeter=parallelogramPerimeter;whiteSpace=wrap;html=1;fixedSize=1;" parent="1" vertex="1">
                    <mxGeometry x="575" y="375" width="90" height="45" as="geometry"/>
                </mxCell>
                <mxCell id="78" value="Leser inn&lt;br&gt;til/fra NOK" style="shape=parallelogram;perimeter=parallelogramPerimeter;whiteSpace=wrap;html=1;fixedSize=1;" parent="1" vertex="1">
                    <mxGeometry x="378" y="380" width="95" height="40" as="geometry"/>
                </mxCell>
                <mxCell id="79" value="" style="endArrow=classic;html=1;fontSize=10;exitX=0.5;exitY=1;exitDx=0;exitDy=0;entryX=0.5;entryY=0;entryDx=0;entryDy=0;" parent="1" source="78" target="73" edge="1">
                    <mxGeometry width="50" height="50" relative="1" as="geometry">
                        <mxPoint x="435" y="580" as="sourcePoint"/>
                        <mxPoint x="435" y="670" as="targetPoint"/>
                    </mxGeometry>
                </mxCell>
                <mxCell id="80" value="" style="endArrow=classic;html=1;fontSize=10;exitX=0.5;exitY=1;exitDx=0;exitDy=0;entryX=0.5;entryY=0;entryDx=0;entryDy=0;" parent="1" source="76" target="74" edge="1">
                    <mxGeometry width="50" height="50" relative="1" as="geometry">
                        <mxPoint x="445" y="590" as="sourcePoint"/>
                        <mxPoint x="260" y="500" as="targetPoint"/>
                    </mxGeometry>
                </mxCell>
                <mxCell id="87" value="" style="endArrow=classic;html=1;entryX=0.5;entryY=0;entryDx=0;entryDy=0;exitX=0.5;exitY=1;exitDx=0;exitDy=0;" parent="1" source="40" target="17" edge="1">
                    <mxGeometry width="50" height="50" relative="1" as="geometry">
                        <mxPoint x="360" y="670" as="sourcePoint"/>
                        <mxPoint x="410" y="620" as="targetPoint"/>
                    </mxGeometry>
                </mxCell>
                <mxCell id="88" value="" style="endArrow=classic;html=1;entryX=0.5;entryY=0;entryDx=0;entryDy=0;exitX=0.5;exitY=1;exitDx=0;exitDy=0;" parent="1" source="77" target="75" edge="1">
                    <mxGeometry width="50" height="50" relative="1" as="geometry">
                        <mxPoint x="470" y="490" as="sourcePoint"/>
                        <mxPoint x="520" y="440" as="targetPoint"/>
                    </mxGeometry>
                </mxCell>
                <mxCell id="89" value="&lt;font style=&quot;font-size: 8px&quot;&gt;Gir toFromInp verdien 1&lt;/font&gt;" style="rounded=0;whiteSpace=wrap;html=1;spacing=0;" parent="1" vertex="1">
                    <mxGeometry x="140" y="500" width="70" height="30" as="geometry"/>
                </mxCell>
                <mxCell id="90" value="&lt;span style=&quot;font-size: 8px&quot;&gt;Gir toFromInp verdien 1&lt;/span&gt;" style="rounded=0;whiteSpace=wrap;html=1;spacing=0;" parent="1" vertex="1">
                    <mxGeometry x="640" y="500" width="70" height="30" as="geometry"/>
                </mxCell>
                <mxCell id="91" value="&lt;span style=&quot;font-size: 8px&quot;&gt;Gir toFromInp verdien 1&lt;/span&gt;" style="rounded=0;whiteSpace=wrap;html=1;spacing=0;" parent="1" vertex="1">
                    <mxGeometry x="530" y="500" width="70" height="30" as="geometry"/>
                </mxCell>
                <mxCell id="92" value="&lt;span style=&quot;font-size: 8px&quot;&gt;Gir toFromInp verdien 1&lt;/span&gt;" style="rounded=0;whiteSpace=wrap;html=1;spacing=0;" parent="1" vertex="1">
                    <mxGeometry x="450" y="500" width="60" height="30" as="geometry"/>
                </mxCell>
                <mxCell id="93" value="&lt;span style=&quot;font-size: 8px&quot;&gt;Gir toFromInp verdien 1&lt;/span&gt;" style="rounded=0;whiteSpace=wrap;html=1;spacing=0;" parent="1" vertex="1">
                    <mxGeometry x="340" y="500" width="60" height="30" as="geometry"/>
                </mxCell>
                <mxCell id="94" value="&lt;span style=&quot;font-size: 8px&quot;&gt;Gir toFromInp verdien 2&lt;/span&gt;" style="rounded=0;whiteSpace=wrap;html=1;spacing=0;" parent="1" vertex="1">
                    <mxGeometry x="250" y="500" width="70" height="30" as="geometry"/>
                </mxCell>
                <mxCell id="95" value="" style="endArrow=classic;html=1;fontSize=11;exitX=0;exitY=1;exitDx=0;exitDy=0;entryX=0.5;entryY=0;entryDx=0;entryDy=0;" parent="1" source="74" target="89" edge="1">
                    <mxGeometry width="50" height="50" relative="1" as="geometry">
                        <mxPoint x="430" y="540" as="sourcePoint"/>
                        <mxPoint x="480" y="490" as="targetPoint"/>
                        <Array as="points">
                            <mxPoint x="175" y="470"/>
                        </Array>
                    </mxGeometry>
                </mxCell>
                <mxCell id="115" value="&lt;font style=&quot;font-size: 8px&quot;&gt;toFromInp==1&lt;/font&gt;" style="edgeLabel;html=1;align=center;verticalAlign=middle;resizable=0;points=[];fontSize=11;spacingBottom=20;spacingRight=20;" parent="95" vertex="1" connectable="0">
                    <mxGeometry x="-0.077" y="1" relative="1" as="geometry">
                        <mxPoint as="offset"/>
                    </mxGeometry>
                </mxCell>
                <mxCell id="96" value="&lt;font style=&quot;font-size: 8px&quot;&gt;toFromInp==2&lt;/font&gt;" style="endArrow=classic;html=1;fontSize=11;exitX=1;exitY=1;exitDx=0;exitDy=0;entryX=0.5;entryY=0;entryDx=0;entryDy=0;spacingLeft=14;spacingBottom=20;" parent="1" source="73" target="92" edge="1">
                    <mxGeometry width="50" height="50" relative="1" as="geometry">
                        <mxPoint x="430" y="540" as="sourcePoint"/>
                        <mxPoint x="480" y="490" as="targetPoint"/>
                        <Array as="points">
                            <mxPoint x="480" y="470"/>
                        </Array>
                    </mxGeometry>
                </mxCell>
                <mxCell id="97" value="&lt;font style=&quot;font-size: 8px&quot;&gt;toFromInp==1&lt;/font&gt;" style="endArrow=classic;html=1;fontSize=11;exitX=0;exitY=1;exitDx=0;exitDy=0;entryX=0.5;entryY=0;entryDx=0;entryDy=0;spacingBottom=18;spacingRight=4;" parent="1" source="73" target="93" edge="1">
                    <mxGeometry x="0.1429" width="50" height="50" relative="1" as="geometry">
                        <mxPoint x="430" y="540" as="sourcePoint"/>
                        <mxPoint x="480" y="490" as="targetPoint"/>
                        <Array as="points">
                            <mxPoint x="370" y="470"/>
                        </Array>
                        <mxPoint as="offset"/>
                    </mxGeometry>
                </mxCell>
                <mxCell id="98" value="" style="endArrow=classic;html=1;fontSize=11;exitX=1;exitY=1;exitDx=0;exitDy=0;entryX=0.5;entryY=0;entryDx=0;entryDy=0;" parent="1" source="74" target="94" edge="1">
                    <mxGeometry width="50" height="50" relative="1" as="geometry">
                        <mxPoint x="430" y="540" as="sourcePoint"/>
                        <mxPoint x="480" y="490" as="targetPoint"/>
                        <Array as="points">
                            <mxPoint x="285" y="470"/>
                        </Array>
                    </mxGeometry>
                </mxCell>
                <mxCell id="116" value="toFromInp==2" style="edgeLabel;html=1;align=center;verticalAlign=middle;resizable=0;points=[];fontSize=8;spacingBottom=20;spacingLeft=20;" parent="98" vertex="1" connectable="0">
                    <mxGeometry x="-0.0988" y="-1" relative="1" as="geometry">
                        <mxPoint as="offset"/>
                    </mxGeometry>
                </mxCell>
                <mxCell id="99" value="" style="endArrow=classic;html=1;fontSize=11;entryX=0.5;entryY=0;entryDx=0;entryDy=0;exitX=1;exitY=1;exitDx=0;exitDy=0;" parent="1" source="75" target="90" edge="1">
                    <mxGeometry width="50" height="50" relative="1" as="geometry">
                        <mxPoint x="430" y="540" as="sourcePoint"/>
                        <mxPoint x="480" y="490" as="targetPoint"/>
                        <Array as="points">
                            <mxPoint x="675" y="470"/>
                        </Array>
                    </mxGeometry>
                </mxCell>
                <mxCell id="117" value="toFromInp==2" style="edgeLabel;html=1;align=center;verticalAlign=middle;resizable=0;points=[];fontSize=8;spacingBottom=18;spacingLeft=18;" parent="99" vertex="1" connectable="0">
                    <mxGeometry x="-0.0769" y="-1" relative="1" as="geometry">
                        <mxPoint as="offset"/>
                    </mxGeometry>
                </mxCell>
                <mxCell id="100" value="&lt;font style=&quot;font-size: 8px&quot;&gt;toFromInp==1&lt;/font&gt;" style="endArrow=classic;html=1;fontSize=11;exitX=0;exitY=1;exitDx=0;exitDy=0;entryX=0.5;entryY=0;entryDx=0;entryDy=0;spacingBottom=18;spacingRight=13;" parent="1" source="75" target="91" edge="1">
                    <mxGeometry width="50" height="50" relative="1" as="geometry">
                        <mxPoint x="430" y="540" as="sourcePoint"/>
                        <mxPoint x="480" y="490" as="targetPoint"/>
                        <Array as="points">
                            <mxPoint x="565" y="470"/>
                        </Array>
                    </mxGeometry>
                </mxCell>
                <mxCell id="101" value="" style="rhombus;whiteSpace=wrap;html=1;" parent="1" vertex="1">
                    <mxGeometry x="590" y="550" width="60" height="40" as="geometry"/>
                </mxCell>
                <mxCell id="102" value="" style="rhombus;whiteSpace=wrap;html=1;" parent="1" vertex="1">
                    <mxGeometry x="395" y="550" width="60" height="40" as="geometry"/>
                </mxCell>
                <mxCell id="103" value="" style="rhombus;whiteSpace=wrap;html=1;" parent="1" vertex="1">
                    <mxGeometry x="200" y="550" width="60" height="40" as="geometry"/>
                </mxCell>
                <mxCell id="113" value="" style="endArrow=classic;html=1;fontSize=11;exitX=0.5;exitY=1;exitDx=0;exitDy=0;entryX=0.5;entryY=0;entryDx=0;entryDy=0;" parent="1" source="102" target="118" edge="1">
                    <mxGeometry width="50" height="50" relative="1" as="geometry">
                        <mxPoint x="430" y="540" as="sourcePoint"/>
                        <mxPoint x="560" y="640" as="targetPoint"/>
                    </mxGeometry>
                </mxCell>
                <mxCell id="114" value="" style="endArrow=none;html=1;fontSize=11;exitX=0.5;exitY=1;exitDx=0;exitDy=0;entryX=0.5;entryY=1;entryDx=0;entryDy=0;" parent="1" source="103" target="101" edge="1">
                    <mxGeometry width="50" height="50" relative="1" as="geometry">
                        <mxPoint x="430" y="540" as="sourcePoint"/>
                        <mxPoint x="480" y="490" as="targetPoint"/>
                        <Array as="points">
                            <mxPoint x="230" y="600"/>
                            <mxPoint x="620" y="600"/>
                        </Array>
                    </mxGeometry>
                </mxCell>
                <mxCell id="118" value="Leser inn&lt;br&gt;ønsket mengde" style="shape=parallelogram;perimeter=parallelogramPerimeter;whiteSpace=wrap;html=1;fixedSize=1;fontSize=11;" parent="1" vertex="1">
                    <mxGeometry x="365" y="620" width="120" height="60" as="geometry"/>
                </mxCell>
                <mxCell id="119" value="" style="endArrow=classic;html=1;fontSize=11;exitX=0.5;exitY=1;exitDx=0;exitDy=0;" parent="1" source="118" target="120" edge="1">
                    <mxGeometry width="50" height="50" relative="1" as="geometry">
                        <mxPoint x="360" y="650" as="sourcePoint"/>
                        <mxPoint x="570" y="680" as="targetPoint"/>
                    </mxGeometry>
                </mxCell>
                <mxCell id="120" value="Gir amountInput en verdi lik mengden" style="rounded=0;whiteSpace=wrap;html=1;fontSize=11;" parent="1" vertex="1">
                    <mxGeometry x="378" y="700" width="95" height="40" as="geometry"/>
                </mxCell>
                <mxCell id="121" value="" style="endArrow=classic;html=1;fontSize=11;exitX=0.5;exitY=1;exitDx=0;exitDy=0;entryX=0.5;entryY=0;entryDx=0;entryDy=0;" parent="1" source="120" target="40" edge="1">
                    <mxGeometry width="50" height="50" relative="1" as="geometry">
                        <mxPoint x="420" y="690" as="sourcePoint"/>
                        <mxPoint x="470" y="640" as="targetPoint"/>
                    </mxGeometry>
                </mxCell>
                <mxCell id="133" style="edgeStyle=none;html=1;entryX=0.5;entryY=0;entryDx=0;entryDy=0;fontSize=11;" parent="1" source="122" target="76" edge="1">
                    <mxGeometry relative="1" as="geometry"/>
                </mxCell>
                <mxCell id="122" value="Gir nameInput verdien 1" style="rounded=0;whiteSpace=wrap;html=1;fontSize=11;spacing=0;" parent="1" vertex="1">
                    <mxGeometry x="190" y="310" width="80" height="30" as="geometry"/>
                </mxCell>
                <mxCell id="132" style="edgeStyle=none;html=1;exitX=0.5;exitY=1;exitDx=0;exitDy=0;entryX=0.5;entryY=0;entryDx=0;entryDy=0;fontSize=11;" parent="1" source="123" target="78" edge="1">
                    <mxGeometry relative="1" as="geometry"/>
                </mxCell>
                <mxCell id="123" value="&lt;span&gt;Gir nameInput verdien 2&lt;br&gt;&lt;/span&gt;" style="rounded=0;whiteSpace=wrap;html=1;fontSize=11;spacing=0;" parent="1" vertex="1">
                    <mxGeometry x="380" y="340" width="90" height="30" as="geometry"/>
                </mxCell>
                <mxCell id="127" style="edgeStyle=none;html=1;entryX=0.5;entryY=0;entryDx=0;entryDy=0;fontSize=11;" parent="1" source="124" target="77" edge="1">
                    <mxGeometry relative="1" as="geometry"/>
                </mxCell>
                <mxCell id="124" value="&lt;span&gt;Gir nameInput verdien 3&lt;/span&gt;" style="rounded=0;whiteSpace=wrap;html=1;fontSize=11;spacing=0;" parent="1" vertex="1">
                    <mxGeometry x="580" y="310" width="80" height="30" as="geometry"/>
                </mxCell>
                <mxCell id="134" value="" style="endArrow=none;html=1;fontSize=11;exitX=0.5;exitY=1;exitDx=0;exitDy=0;entryX=0.5;entryY=1;entryDx=0;entryDy=0;" parent="1" source="93" target="92" edge="1">
                    <mxGeometry width="50" height="50" relative="1" as="geometry">
                        <mxPoint x="370" y="590" as="sourcePoint"/>
                        <mxPoint x="420" y="540" as="targetPoint"/>
                        <Array as="points">
                            <mxPoint x="370" y="540"/>
                            <mxPoint x="480" y="540"/>
                        </Array>
                    </mxGeometry>
                </mxCell>
                <mxCell id="137" value="" style="endArrow=classic;html=1;fontSize=11;entryX=0.5;entryY=0;entryDx=0;entryDy=0;" parent="1" target="102" edge="1">
                    <mxGeometry width="50" height="50" relative="1" as="geometry">
                        <mxPoint x="425" y="540" as="sourcePoint"/>
                        <mxPoint x="420" y="540" as="targetPoint"/>
                    </mxGeometry>
                </mxCell>
                <mxCell id="139" value="" style="endArrow=none;html=1;fontSize=11;exitX=0.5;exitY=1;exitDx=0;exitDy=0;entryX=0.429;entryY=1;entryDx=0;entryDy=0;entryPerimeter=0;" parent="1" source="89" target="94" edge="1">
                    <mxGeometry width="50" height="50" relative="1" as="geometry">
                        <mxPoint x="400" y="570" as="sourcePoint"/>
                        <mxPoint x="450" y="520" as="targetPoint"/>
                        <Array as="points">
                            <mxPoint x="175" y="540"/>
                            <mxPoint x="280" y="540"/>
                        </Array>
                    </mxGeometry>
                </mxCell>
                <mxCell id="140" value="" style="endArrow=none;html=1;fontSize=11;exitX=0.5;exitY=1;exitDx=0;exitDy=0;entryX=0.5;entryY=1;entryDx=0;entryDy=0;" parent="1" source="91" target="90" edge="1">
                    <mxGeometry width="50" height="50" relative="1" as="geometry">
                        <mxPoint x="400" y="570" as="sourcePoint"/>
                        <mxPoint x="450" y="520" as="targetPoint"/>
                        <Array as="points">
                            <mxPoint x="565" y="540"/>
                            <mxPoint x="675" y="540"/>
                        </Array>
                    </mxGeometry>
                </mxCell>
                <mxCell id="142" value="" style="endArrow=classic;html=1;fontSize=11;entryX=0.5;entryY=0;entryDx=0;entryDy=0;" parent="1" target="101" edge="1">
                    <mxGeometry width="50" height="50" relative="1" as="geometry">
                        <mxPoint x="620" y="540" as="sourcePoint"/>
                        <mxPoint x="520" y="520" as="targetPoint"/>
                    </mxGeometry>
                </mxCell>
                <mxCell id="143" value="" style="endArrow=classic;html=1;fontSize=11;entryX=0.5;entryY=0;entryDx=0;entryDy=0;" parent="1" target="103" edge="1">
                    <mxGeometry width="50" height="50" relative="1" as="geometry">
                        <mxPoint x="230" y="540" as="sourcePoint"/>
                        <mxPoint x="380" y="520" as="targetPoint"/>
                    </mxGeometry>
                </mxCell>
            </root>
        </mxGraphModel>
    </diagram>
</mxfile>